/* XPM */
static char *_7670d91766b48fdab701d5bd5ffc51d1l9lojct2vMQxbt0[] = {
/* columns rows colors chars-per-pixel */
"32 32 116 2 ",
"   c None",
".  c #292327",
"X  c #2A2327",
"o  c #2B2927",
"O  c #2E2D27",
"+  c #2A2428",
"@  c #2B2428",
"#  c #2B2528",
"$  c #2C2529",
"%  c #2E2629",
"&  c #2D252B",
"*  c #2E2B28",
"=  c #30262B",
"-  c #30282A",
";  c #32282B",
":  c #302F28",
">  c #32282F",
",  c #34292E",
"<  c #323427",
"1  c #333527",
"2  c #333329",
"3  c #353329",
"4  c #313528",
"5  c #333428",
"6  c #33362A",
"7  c #343428",
"8  c #343528",
"9  c #373729",
"0  c #34342A",
"q  c #37352A",
"w  c #35382C",
"e  c #3A382C",
"r  c #332830",
"t  c #352930",
"y  c #392B34",
"u  c #3A2C35",
"i  c #3C2C36",
"p  c #3E2D37",
"a  c #3E2E38",
"s  c #3F2E38",
"d  c #3C3233",
"f  c #3D3235",
"g  c #3E3236",
"h  c #402E39",
"j  c #412F3A",
"k  c #493D31",
"l  c #42303B",
"z  c #43313C",
"x  c #44313C",
"c  c #5A3A3C",
"v  c #5E3C3C",
"b  c #4D4032",
"n  c #504134",
"m  c #5F473B",
"M  c #623F40",
"N  c #4B4C44",
"B  c #794A47",
"V  c #7C4B48",
"C  c #7E4A49",
"Z  c #7E5447",
"A  c #7D5348",
"S  c #6A696A",
"D  c #7B7B7F",
"F  c #7E7C7E",
"G  c #804D4A",
"H  c #945E51",
"J  c #955F51",
"K  c #A06456",
"L  c #B7665F",
"P  c #A86062",
"I  c #AA6162",
"U  c #AC6063",
"Y  c #AD6163",
"T  c #C16B66",
"R  c #C76E66",
"E  c #C86F66",
"W  c #CA6F68",
"Q  c #CD6F68",
"!  c #C47167",
"~  c #C97067",
"^  c #CF716A",
"/  c #D3746C",
"(  c #FFC726",
")  c #FFD128",
"_  c #E68272",
"`  c #EB8376",
"'  c #F08577",
"]  c #F5827A",
"[  c #FD867C",
"{  c #FE887D",
"}  c #FFD85A",
"|  c #86868B",
" . c #8E898C",
".. c #8B8C8F",
"X. c #8D8F94",
"o. c #909094",
"O. c #95959C",
"+. c #95959D",
"@. c #A0A0A5",
"#. c #A7A7AF",
"$. c #AAAAB2",
"%. c #ACACB4",
"&. c #FF8A81",
"*. c #FF9388",
"=. c #FF988C",
"-. c #FF9B8E",
";. c #FF9B90",
":. c #FF9E91",
">. c #FFA194",
",. c #FFA295",
"<. c #FFA196",
"1. c #FFA297",
"2. c #FFAA9C",
"3. c #FFAC9E",
"4. c #FFAEA0",
"5. c #FFB5A6",
/* pixels */
"                                                                ",
"                                                                ",
"                                                                ",
"          . w   . .                                             ",
"        . %.@.N %.o.. 8 . . .                                   ",
"      . O.$.%.$.@. .n K 5.' . 2                                 ",
"      8 | O.#...e J 5.5.5.5.` k 5                               ",
"        . X.F m J 5.5.5.5.5.5._ b 5                             ",
"      . D S A 1.5.5.} 5.5.5.5.5.! 8 1                           ",
"      . . Z =.4.5.5.} 5.5.5.5.1.I g 8 1                         ",
"        . =.=.=.3.4.) } 5.5.1.I x x g 8 1                       ",
"      5 ~ =.=.=.=.:.( ) 5.1.U x x x x g 8 1                     ",
"      5 ~ =.=.=.=.;.2.) } U x x x } x x g 8 1                   ",
"      O E { =.=.=.=.=.( } } x } } } x x x g 8 1                 ",
"      . G W [ =.=.=.&.( ) } } } } } x x x x g 8 5               ",
"        # C Q ] [ *.T y ( ) } } } } x x x x x g d 8             ",
"          % C R ^ / M y ( ) } } } } } x x x x x x g 3           ",
"            - B L v # r ( ) ) s ) } } x x x x x x x 8 8         ",
"              - c . . # r ( y i i ) } x x x x x x x g *         ",
"                . . . . = y y y y s } } l x x x x x x :         ",
"                  . . . # > y y y i ) } s l x x x x , o         ",
"                    . . . = y y y y j ) ) z x x x x % .         ",
"                      . . # % > y y u i j x x x x > .           ",
"                        . . . # % , y y u i l x > .             ",
"                          . . . . # , y y y j > .               ",
"                            . . . . # t y y = .                 ",
"                              . . . . . t = .                   ",
"                                . . . . . .                     ",
"                                  . . . .                       ",
"                                                                ",
"                                                                ",
"                                                                "
};
