/* XPM */
static char *_d61d44945624955f5d673bfe68113b6fSGP77Usz1j4wPKN[] = {
/* columns rows colors chars-per-pixel */
"32 32 253 2 ",
"   c None",
".  c #484642",
"X  c #57554F",
"o  c #5C5A54",
"O  c #5D5B54",
"+  c #5F5D56",
"@  c #605E58",
"#  c #615F58",
"$  c #626059",
"%  c #63615A",
"&  c #64625B",
"*  c #64625C",
"=  c #65635C",
"-  c #65635D",
";  c #66645D",
":  c #67655D",
">  c #67655E",
",  c #69675F",
"<  c #696760",
"1  c #6A6861",
"2  c #6C6A63",
"3  c #6C6B63",
"4  c #6D6B63",
"5  c #6E6C64",
"6  c #6F6D65",
"7  c #716F66",
"8  c #706E67",
"9  c #706F67",
"0  c #716F67",
"q  c #717067",
"w  c #727068",
"e  c #737169",
"r  c #757269",
"t  c #75746B",
"y  c #76746C",
"u  c #77756C",
"i  c #77766D",
"p  c #78766E",
"a  c #79776E",
"s  c #7A786E",
"d  c #7B7970",
"f  c #7B7A71",
"g  c #7C7B71",
"h  c #7D7B71",
"j  c #7E7C72",
"k  c #7E7C73",
"l  c #7F7D74",
"z  c #807E74",
"x  c #807F75",
"c  c #848279",
"v  c #86847B",
"b  c #87857B",
"n  c #87857C",
"m  c #88877C",
"M  c #89877D",
"N  c #8A887D",
"B  c #8B897E",
"V  c #8C8A7F",
"C  c #8D8C80",
"Z  c #8E8C81",
"A  c #8F8C83",
"S  c #8F8D83",
"D  c #8F8E82",
"F  c #8F8E83",
"G  c #908E84",
"H  c #918F84",
"J  c #918F86",
"K  c #919083",
"L  c #919084",
"P  c #929085",
"I  c #939185",
"U  c #929186",
"Y  c #939186",
"T  c #949187",
"R  c #959288",
"E  c #959388",
"W  c #959389",
"Q  c #959489",
"!  c #969489",
"~  c #96948A",
"^  c #97948A",
"/  c #97958A",
"(  c #97958B",
")  c #98968A",
"_  c #98968B",
"`  c #99968B",
"'  c #98978B",
"]  c #99978B",
"[  c #98978C",
"{  c #98988C",
"}  c #9A988D",
"|  c #9C998E",
" . c #9C9A8E",
".. c #9D9B8F",
"X. c #9E9C91",
"o. c #9E9D91",
"O. c #9F9D91",
"+. c #9E9D92",
"@. c #A09E91",
"#. c #A09E92",
"$. c #A09E93",
"%. c #A19F93",
"&. c #A3A293",
"*. c #A3A194",
"=. c #A3A195",
"-. c #A3A296",
";. c #A4A295",
":. c #A5A196",
">. c #A4A296",
",. c #A4A396",
"<. c #A5A396",
"1. c #A4A397",
"2. c #A7A496",
"3. c #A6A597",
"4. c #A5A498",
"5. c #A7A498",
"6. c #A6A598",
"7. c #A7A598",
"8. c #A8A698",
"9. c #A9A698",
"0. c #A8A798",
"q. c #A8A699",
"w. c #A8A79A",
"e. c #ABA89B",
"r. c #ABA99B",
"t. c #ABA99C",
"y. c #ABAA9C",
"u. c #ABAA9D",
"i. c #ADA99D",
"p. c #ACAA9C",
"a. c #ADAA9D",
"s. c #ADAB9E",
"d. c #AEAB9F",
"f. c #AEAC9E",
"g. c #AFAC9F",
"h. c #AFAD9F",
"j. c #ADACA0",
"k. c #AEACA0",
"l. c #AEADA0",
"z. c #B0AFA1",
"x. c #B1AFA1",
"c. c #B2B0A1",
"v. c #B2B0A2",
"b. c #B3B1A2",
"n. c #B2B1A3",
"m. c #B3B1A3",
"M. c #B4B1A2",
"N. c #B4B2A3",
"B. c #B3B2A4",
"V. c #B4B2A4",
"C. c #B4B3A4",
"Z. c #B5B3A4",
"A. c #B4B2A5",
"S. c #B4B3A5",
"D. c #B5B3A5",
"F. c #B6B2A5",
"G. c #B6B3A5",
"H. c #B5B4A5",
"J. c #B6B4A4",
"K. c #B7B5A4",
"L. c #B6B4A5",
"P. c #B5B4A6",
"I. c #B7B5A6",
"U. c #B6B5A7",
"Y. c #B7B6A7",
"T. c #B8B6A6",
"R. c #B8B6A7",
"E. c #B9B7A8",
"W. c #B9B7A9",
"Q. c #B8B7AA",
"!. c #B9B8A9",
"~. c #BAB8A8",
"^. c #BAB8A9",
"/. c #B9B8AA",
"(. c #BAB8AA",
"). c #BAB9AA",
"_. c #BAB9AB",
"`. c #BBBAAB",
"'. c #BCBAAA",
"]. c #BCBAAB",
"[. c #BDBAAB",
"{. c #BDBBAB",
"}. c #BBBAAC",
"|. c #BCBBAC",
" X c #BDBBAC",
".X c #BEBCAC",
"XX c #BEBCAD",
"oX c #BEBDAD",
"OX c #BFBDAD",
"+X c #BEBCAE",
"@X c #BEBDAE",
"#X c #BFBDAE",
"$X c #BFBEAE",
"%X c #C0BEAE",
"&X c #C1BFAF",
"*X c #C0C0B1",
"=X c #C1C0B1",
"-X c #C2C0B0",
";X c #C2C0B1",
":X c #C3C1B1",
">X c #C3C1B2",
",X c #C3C1B3",
"<X c #C3C2B3",
"1X c #C3C3B3",
"2X c #C4C2B2",
"3X c #C4C2B3",
"4X c #C4C3B3",
"5X c #C3C2B4",
"6X c #C4C2B4",
"7X c #C5C3B4",
"8X c #C5C4B4",
"9X c #C5C4B5",
"0X c #C6C4B5",
"qX c #C6C4B6",
"wX c #C6C5B6",
"eX c #C7C5B6",
"rX c #C7C6B7",
"tX c #C8C6B6",
"yX c #C8C6B7",
"uX c #C8C7B7",
"iX c #C9C7B7",
"pX c #C8C7B8",
"aX c #C9C7B8",
"sX c #C9C8B8",
"dX c #CAC8B8",
"fX c #CAC9B8",
"gX c #CAC8B9",
"hX c #CAC9B9",
"jX c #CBC9B9",
"kX c #CBC9BA",
"lX c #CBCABA",
"zX c #CCCBBB",
"xX c #CDCBBB",
"cX c #CCCCBB",
"vX c #CDCCBC",
"bX c #CDCCBD",
"nX c #CECCBC",
"mX c #CECDBC",
"MX c #CECCBD",
"NX c #CECDBD",
"BX c #CFCDBD",
"VX c #CFCEBE",
"CX c #D0CFBE",
"ZX c #D0CFBF",
"AX c #D1CFBF",
"SX c #D2D1C1",
"DX c #D3D1C1",
"FX c #D3D2C1",
"GX c #D3D2C2",
"HX c #D4D2C2",
"JX c #D4D3C3",
"KX c #D5D4C3",
"LX c #D6D5C4",
/* pixels */
"                                                                ",
"                                                                ",
"                  1X1X@X|.Q.i.' M I ' ^ ^ J ^                   ",
"                ^ 8X8X8X1X1Xu.% . Q.xXCXCXJXx.                  ",
"                i.@X1X1X1X@XI < & b.yXgXnXLXQ.A                 ",
"                i.@X1X@Xx.~.D.<.8.H.H.~.pXLXQ.K                 ",
"                3.Q.|.pXs < , : # X = q pXKX~.'                 ",
"                I b.i.2 1X1X1X2XgXKXLXpX<.JX@X<.                ",
"                R f.i.= %X .%XyXnXnX6.pX} xX2X                  ",
"                J u.i.O R.w ~.gXnXD.2 pXA gXyX                  ",
"                G f.i.+ R.2 8XgXyX8.< pXu gXcX                  ",
"                G H.u.= H.1 7XpXyX*.2 pX% gXnXD.                ",
"                #.b.x.0 Q.O 1X8XgXx.u pX# gXnX&.                ",
"                <.].].p 1XD.@X2XnXKX~.b.= 8X1XA                 ",
"                i.@X@Xb 8.pXpXpXpX~.@XH.I pXyXl                 ",
"                f.].%Xi.B % # 0 u j I <.GXGX1Xt                 ",
"                #.R.1X@XpXpXpXpXpXpXpXpXCXLX~.r                 ",
"                <.H.%XpXV B h 0 & 2 A *.pXLXQ.x                 ",
"                o.H.].M 1X1X1X2XgXGXKXpXo.LXQ.J                 ",
"                } H.].: @Xd 1XyXxX1Xc pXb LXQ.}                 ",
"                ' N.].6 Q.6 7XgXnXH.: pXj LXQ.o.                ",
"                J N.].u H.6 8XyXgXD.6 pX0 LXQ.o.                ",
"                 .D.].p H.w 8X8XpXB.c pXd LXQ.^                 ",
"                <.D.].j @X& 2X8XpX8Xw l.h LXQ.J                 ",
"                6.D.].0 b.H.~.7X5X8Xu.l.u LXQ.J                 ",
"                6.D.%Xw pX}.pXpXpXpX~.pXw LXQ.J                 ",
"                8.D.1X%X*.' R  . .6.u.x.yXKXQ.J                 ",
"                *.H.1X1X1X@X1X1X1X1X1XpXnXGXQ.J                 ",
"                ^ b.D.1X1X@X<.j x b.1XgXnXGXi.^                 ",
"                ^ e.e.8.~.f.3.n c ^ 1X1X1X1X#.J                 ",
"                  R #.#.^ ^ T A A I ^ [ '  .J                   ",
"                                                                "
};
