/* XPM */
static char *_46605052c414d43cb532cee47934db4Hta4ltbS0OqurORO[] = {
/* columns rows colors chars-per-pixel */
"32 32 50 1 ",
"  c #433735",
". c #463A36",
"X c #4B3D36",
"o c #4B3D39",
"O c #4F4037",
"+ c #4F4039",
"@ c #544336",
"# c #5A4736",
"$ c #564834",
"% c #5C4A36",
"& c #54443A",
"* c #59473A",
"= c #574939",
"- c #5D4B39",
"; c #644D36",
": c #634D39",
"> c #684E38",
", c #665037",
"< c #6A5236",
"1 c #6C5236",
"2 c #6C5337",
"3 c #6B5637",
"4 c #6D5437",
"5 c #625038",
"6 c #635038",
"7 c #655238",
"8 c #64523A",
"9 c #675539",
"0 c #6A5238",
"q c #68543A",
"w c #6F5638",
"e c #6B5838",
"r c #6F5839",
"t c #725735",
"y c #705836",
"u c #745937",
"i c #765C37",
"p c #7B5C37",
"a c #7E5F37",
"s c #725638",
"d c #745A38",
"f c #775D38",
"g c #7A5B38",
"h c #795C39",
"j c #7D5E38",
"k c #7A5B3C",
"l c #7B6036",
"z c #7D6037",
"x c #7F6038",
"c c #806138",
/* pixels */
"@g<ycca4jxcj<;<yct4u0<<-<<<;*-X.",
"@zt<114411<,:->11><<;<>1;<;<;-X.",
".qd3<;>>;<;:>>>;;->;>>>><;;,39&o",
"--&X-5-:-+#&&&*-#-::**&X&**:-57:",
"4<,@<<4iy#@:,<174t7*%er-%<<44411",
"<;-+5*>144;4t<<<<135->sq4<4i4<;-",
"11#*9:<ywty4441111<5:;tyu444414<",
"-##@*&-:5##-%-------*#7-----:%::",
";>-#X*>;>*&0hy4<3;;;>>;;q3<9&:4,",
"11;-#;1<1-;a:#-<5><<1411114,:gt<",
"ytju41<<1*@u0y<14<<<tfu4uu47:uf4",
"<<,<<<<<<*5<wy0<<<<<>><<<<<:0ly<",
"::::::5---:-##----*#%@#:5---&&*;",
"44suith1y4<<<1u44<<<41144<147X&w",
";*-,5;:>4<;<4t414<7<*,;>%>44i-o&",
"cwhy0<:<u1>14y114101;<;><11uyO@d",
"3;;;>w;:;:::::::-:%:-%;:::;,-o+q",
"::::5q5qq=o5k0*&X#<s5;5::@o@::::",
"14upt41yi- ,g,-><<tu4y<:7Xo:<tj4",
"<,uu1<<14$.X#@:14y<4<<>*&X.*-;<-",
"<<<<1<<4y@X04uu111<11<1<:XX><<<<",
"----*-:--&X**:5---@#----#X@#----",
"<4:;&;00w--#--w4yw<<<41-:-%#gw<<",
"#::5+;wtu01444;>44;>144O*:w#><<-",
"<44:.;ugt71gu1<444<<<<<#::d#>t<<",
":###@-77-#@::*-7--%---:%@@:-5:#%",
"d4yud<44<<@%*&dwdstttugy<<-*ts4u",
";4<<1,><10-;*o#*-;y,q4<<<1#O7%@:",
"%<;11>-%1<<<*oo&-sh;-<1111#*a4<@",
";;;;;;::;;;;-o+;q:**&&-;;;*o0dw:",
".-q777:----7w55q-575--5--:7-:-&+",
"Ojy444111114h4ad<444114111414y*."
};
