/* XPM */
static char *result[] = {
/* columns rows colors chars-per-pixel */
"32 32 84 1 ",
"  c #463A36",
". c #4B3E36",
"X c #4B3D39",
"o c #4F4037",
"O c #4F4038",
"+ c #544336",
"@ c #5A4736",
"# c #5C4A36",
"$ c #53443A",
"% c #59473A",
"& c #5E4B39",
"* c #644E36",
"= c #634D39",
"- c #684F39",
"; c #665137",
": c #6B5336",
"> c #64513A",
", c #6B5439",
"< c #725736",
"1 c #745A37",
"2 c #7E5E37",
"3 c #725638",
"4 c #765A39",
"5 c #7B5C38",
"6 c #7C6037",
"7 c #57554F",
"8 c #5D5B55",
"9 c #615F58",
"0 c #636057",
"q c #65635C",
"w c #6A655C",
"e c #726A5E",
"r c #786D5D",
"t c #696760",
"y c #6D6B64",
"u c #716F67",
"i c #717067",
"p c #797164",
"a c #75736B",
"s c #7B776C",
"d c #7A786E",
"f c #7D7B72",
"g c #816238",
"h c #827866",
"j c #847C6B",
"k c #8A7D6A",
"l c #847F73",
"z c #8E816E",
"x c #92856E",
"c c #878276",
"v c #85837A",
"b c #8B867A",
"n c #8D897D",
"m c #948C7C",
"M c #98907E",
"N c #8F8E83",
"B c #918E83",
"V c #949185",
"C c #9C9585",
"Z c #969489",
"A c #9B968A",
"S c #9C9A8D",
"D c #9F9D91",
"F c #A49D8C",
"G c #A39E91",
"H c #A4A295",
"J c #A8A394",
"K c #A6A598",
"L c #A9A699",
"P c #ACAA9C",
"I c #B0AD9E",
"U c #AEADA0",
"Y c #B1AFA1",
"T c #B5B3A4",
"R c #B9B6A7",
"E c #B9B7A9",
"W c #BDBBAB",
"Q c #C0BEAE",
"! c #C3C1B2",
"~ c #C8C6B7",
"^ c #C8C7B8",
"/ c #CCCABA",
"( c #D0CFBF",
") c #D5D4C3",
/* pixels */
"+5:<6g6:22g2:-:<g1<1,*:&-:-*$&o ",
"o2<,::<<:<,-&%*::*::-:*:*;-,-&. ",
" ,1,;;**,IFFFCmhrsbBBBh--*-;,>$X",
"&&$o&>&&kR!!Q!K0OR/(()Kw+%%=&>;&",
"::;+;;<1MR!Q!WVtqT~^/)Ep&:,<::,:",
":;&o;%;,CQQQTETKKTEE^)Eh:::1<,*&",
"::#%>&,<VTW^sttw07tu^)Ez1:::::::",
"&@#++$#;NYPyW!Q!/))^K)Ej&;&&=&=&",
"-*&@.%*-bPPqWDQ^(/K^S/Tz;,:;+=,;",
"::-&@;::BLP8EuE^/Ty^n~!x:<:;=5<:",
"<<2<::::BPP9Ey!/^Lt^d/!x<<<;=11,",
";-;:*:-*BTPqEy!^^Hy^0^!z;,;*:61:",
"==>=&>>&ATYuR8!^^Ua^8/~z>#&&$$$-",
":,33135:AEWsQTW!()ETq~Rh,,,<-X$,",
";&&;>==-FQQvL^^^^EWEV~!p#;<:1&X$",
"g,53,,=*JRQPn09uafNK)(We;::14O$3",
",;-=,,-=ZEWWQ))Q^^^^))Ee=&*;% O,",
"&&&==;-:ZEW^NvdyqyNK/)Ea>oX+>=&>",
"::123<:<ZTWNWQQ)^))^D)Ej>.X=-<6:",
":,1<:,-:BTWtWdQQ/!v^v)Ec$..$&=,&",
"::::-:::mYQyEyQ^(Tq^f)Eb*..*:::*",
"%&&&%%==BYQaEyQ)^Ti^i)Eb#..@&&&&",
"::&*%-::VUQaEaQ^^Yv^f)EN**=@5::*",
"+*&;X-:3mUEjQtQ^^^iUf)EN$>:@*::=",
"::<& =15mIQuYTWQ!!UUd)EB*>4%,3;,",
"&#@#o#>>mLQu~Q^^^^E^a)EB++&&>&@#",
"1<<<1,<,mIQQGAZDDKPY^)EB::#%<:,1",
"*::::;;;kTQQQQQQQQQ^/)EB::@X:#@&",
"#:-,:*&#BYIQQWGllTW)/)LB::&$6,:+",
"**=;;-**BGGFLGAvlZWW!QAB-*%O,33&",
" #,>>;=&=NBmnnNvbbNNbVN==&>>>&$O",
"o6<:3::::3::53g1::,:::::::::,1% "
};
