/* XPM */
static char *_634bea3c2b44b9cc66d870e11604ebfrQ10CgODUr0gqW0d[] = {
/* columns rows colors chars-per-pixel */
"32 32 220 2 ",
"   c None",
".  c #0D1710",
"X  c #0D1912",
"o  c #0E1912",
"O  c #0E1913",
"+  c #101C16",
"@  c #111D17",
"#  c #111E1D",
"$  c #13201D",
"%  c #16251D",
"&  c #142020",
"*  c #152428",
"=  c #202D2B",
"-  c #242F2D",
";  c #243636",
":  c #27393B",
">  c #293D3D",
",  c #313A35",
"<  c #2C4639",
"1  c #2C4041",
"2  c #2E4343",
"3  c #2F4245",
"4  c #2F4345",
"5  c #324546",
"6  c #314648",
"7  c #32474A",
"8  c #314E4B",
"9  c #3B4B49",
"0  c #3C4948",
"q  c #364C50",
"w  c #364C51",
"e  c #374D52",
"r  c #385154",
"t  c #395354",
"y  c #3B5157",
"u  c #3C5359",
"i  c #3E6253",
"p  c #3F5A61",
"a  c #424C48",
"s  c #434C4B",
"d  c #475556",
"f  c #42565C",
"g  c #4E5A59",
"h  c #405A62",
"j  c #415B63",
"k  c #445F65",
"l  c #445D66",
"z  c #565F60",
"x  c #476068",
"c  c #47616A",
"v  c #49646E",
"b  c #4A656E",
"n  c #44696A",
"m  c #586062",
"M  c #4E7A69",
"N  c #4F7A6B",
"B  c #507B6B",
"V  c #507B6C",
"C  c #537F6F",
"Z  c #4C6973",
"A  c #4D6974",
"S  c #4E6B76",
"D  c #4F6E77",
"F  c #4E6D78",
"G  c #5E7774",
"H  c #606663",
"J  c #6A716E",
"K  c #6B706F",
"L  c #737674",
"P  c #777D7B",
"I  c #787B7A",
"U  c #538072",
"Y  c #538379",
"T  c #5B8C7A",
"R  c #5D907D",
"E  c #4C7089",
"W  c #567583",
"Q  c #567682",
"!  c #577784",
"~  c #567785",
"^  c #587785",
"/  c #587885",
"(  c #597886",
")  c #5A7A89",
"_  c #5B7B8A",
"`  c #5B7C8A",
"'  c #5D7E8C",
"]  c #5D7F8E",
"[  c #5B879C",
"{  c #678B83",
"}  c #6B8D8B",
"|  c #7F8486",
" . c #609581",
".. c #619185",
"X. c #618393",
"o. c #628394",
"O. c #638596",
"+. c #658899",
"@. c #66899A",
"#. c #678D9D",
"$. c #69A18D",
"%. c #68A298",
"&. c #69A19B",
"*. c #75B19F",
"=. c #6A90A1",
"-. c #6C94A4",
";. c #739DB0",
":. c #7CABA1",
">. c #76B2A0",
",. c #74B3A2",
"<. c #76B3AA",
"1. c #7EBEA8",
"2. c #7DABC1",
"3. c #808584",
"4. c #868989",
"5. c #888E8F",
"6. c #8C9092",
"7. c #8D9092",
"8. c #8D9192",
"9. c #8E9193",
"0. c #8E9294",
"q. c #909395",
"w. c #909595",
"e. c #919496",
"r. c #939698",
"t. c #BAA0AF",
"y. c #B0B9BA",
"u. c #C289A4",
"i. c #87C39F",
"p. c #B1E485",
"a. c #AEE695",
"s. c #84C4A6",
"d. c #81C2AF",
"f. c #82C5AF",
"g. c #8DC4AB",
"h. c #89C9B6",
"j. c #8AC9B6",
"k. c #89CAB7",
"l. c #89CBB7",
"z. c #8ACAB6",
"x. c #81C7BE",
"c. c #8BD4BB",
"v. c #8DD3BE",
"b. c #8CD2BF",
"n. c #AEC0BD",
"m. c #ACC6BF",
"M. c #AAE7A1",
"N. c #AEE8A4",
"B. c #A7E9AB",
"V. c #A7EAAC",
"C. c #A2ECBC",
"Z. c #A2ECBD",
"A. c #B4EBB3",
"S. c #9E95CD",
"D. c #81AFC3",
"F. c #9FAFCB",
"G. c #80B0CB",
"H. c #84B3C8",
"J. c #89B8CE",
"K. c #9EB4CE",
"L. c #9FBFC9",
"P. c #9EBACF",
"I. c #8BB6D1",
"U. c #89B9D1",
"Y. c #8CBDD5",
"T. c #9DC3CF",
"R. c #87D0C5",
"E. c #8DD7C0",
"W. c #8EDAC6",
"Q. c #97D5C0",
"!. c #93DFC3",
"~. c #92DFC4",
"^. c #8EC0D9",
"/. c #9DCCD0",
"(. c #93C5DF",
"). c #93C6DF",
"_. c #9DDAD1",
"`. c #9DDDD1",
"'. c #ABC8C1",
"]. c #AACAC1",
"[. c #A4DBC8",
"{. c #A3DDCA",
"}. c #96E0C7",
"|. c #9FEDC7",
" X c #92E0CB",
".X c #96E5CA",
"XX c #9DE0CE",
"oX c #9EEDCB",
"OX c #9DE8CE",
"+X c #9FE8CF",
"@X c #9FE9CF",
"#X c #9BECCF",
"$X c #9DEECE",
"%X c #9CE2D0",
"&X c #9CE3D1",
"*X c #9DE4D1",
"=X c #9EEAD0",
"-X c #9AEDD0",
";X c #9BEED1",
":X c #9BEFD1",
">X c #9CECD0",
",X c #9DEDD1",
"<X c #9DEED0",
"1X c #9CEED1",
"2X c #9DEED1",
"3X c #9CEFD1",
"4X c #9CECD2",
"5X c #9DEDD2",
"6X c #9DEED2",
"7X c #9CEFD2",
"8X c #9DEFD2",
"9X c #9CEED3",
"0X c #9CEFD3",
"qX c #9EEED2",
"wX c #A0E6CE",
"eX c #A5EECB",
"rX c #A3F0D5",
"tX c #B3F0D3",
"yX c #94C9E0",
"uX c #95C8E1",
/* pixels */
"                                                                ",
"              O @ @ @ @ @ @ @ @ @ @ @ @ @ @ @                   ",
"            $ I.J.J.J.J.J.J.J.J.J.J.U.^.).uXuXD                 ",
"          * I.. . . . . . . . . . . . E G.).uXH.y               ",
"        # . #X-X#X#X#X#X#X#X#X#X#X#X7X. [ 2.Y.D.y               ",
"        % #X7X7X1.1.1.1.1.1.1.1.1.1.d.E.R . -.;.l .             ",
"        . }.:.. . . . . . . . . . . f 7XU . #.=.+..             ",
"        . l.. w.r.r.r.r.r.r.r.r.r.r.. 7XV . ] +.+..             ",
"        . l.. 9.r.. r.r.r.r.. r.r.r.. 7XM . ] +.+..             ",
"        . l.. 9.r.. 0.9.w.9.. r.r.r.. 7XM . ] +.+..             ",
"        . l.. q.9.r.r.r.r.r.r.r.r.r.. 7XB . ] +.+..             ",
"        . l.. r.r.9.. r.r.. r.r.r.r.. 7XB . ] +.+..             ",
"        . l.. r.r.r.9.. . 3.r.r.r.r.. 7XV . ] +.+..             ",
"        . l.. 5.| | | | | | | | | | . 7XC . ] +.+..             ",
"        . v.} . . . . . . . . . . G { 7XT . ] +.+..             ",
"        . -X7X7X7X7X-X7X7X7X7X7X7X-X7X~. .. ] +.+..             ",
"        . .X*.........>.7X7X7X7X7X<.7X!. .. ] +.Q .             ",
"        . 7XQ.g.i.s.f.c.7X7X[.'.{.v.7X@X .. ] +.. . -           ",
"      O . 7XtXA.a.V.oX7X7X7Xy.u.n.@X7XrX .. ] +.) . =           ",
"      . . 7XeXN.p.M.|.7X7X7Xm.t.'.=X7X7X .. Z / O.. .           ",
"    . S < 7X7XZ.B.Z.$X7X7X7XwX{.@X7X7X7X .. v j Q ` .           ",
"    . / < 7X7XXXL.F.T.%X7X7X7X7X7X7X7X XY . . q v o..           ",
"  . ] / < 7X7X%XK.S.P.*X7X7X7X7X7X7X7XR.. p ] . x X..           ",
"  . +.! . M $.7X_./.`.7X7X7X7X7X7X7X7X>.n F X.. x X..           ",
"  . +.! @ . &.x.7X7X7X7X7X7X7X7X7XW.&.. y j . . l X..           ",
"  . +.^ O   & 8 i i . . . . . . . . . . . . s , x X..           ",
"    . ;           > 7 . 0 J P H 9 2 . s J       . .             ",
"                  3 y .         d q . z 4.                      ",
"                  3 u .         5 q . m                         ",
"                  3 .           2 q . L                         ",
"                7 ) .         : S . g I                         ",
"                                                                "
};
