/* XPM */
static char *_06468f4776541d0e53879240207436cIzQW544mfAoKsWjY[] = {
/* columns rows colors chars-per-pixel */
"32 32 213 2 ",
"   c None",
".  c #0C1710",
"X  c #0D1912",
"o  c #0E1912",
"O  c #0E1913",
"+  c #101C16",
"@  c #111D17",
"#  c #111E1D",
"$  c #13201E",
"%  c #16251E",
"&  c #142020",
"*  c #152429",
"=  c #202D2C",
"-  c #242F2F",
";  c #243636",
":  c #28393B",
">  c #293D3D",
",  c #313A35",
"<  c #2C463A",
"1  c #2C4042",
"2  c #2F4243",
"3  c #2F4245",
"4  c #2F4346",
"5  c #324548",
"6  c #314649",
"7  c #32474A",
"8  c #314D4C",
"9  c #3C4948",
"0  c #3C4B49",
"q  c #364B50",
"w  c #364C52",
"e  c #374D52",
"r  c #395054",
"t  c #395355",
"y  c #3B5158",
"u  c #3C5359",
"i  c #3E6153",
"p  c #3F5A62",
"a  c #424C49",
"s  c #434C4B",
"d  c #475556",
"f  c #43555C",
"g  c #4E5A59",
"h  c #405A62",
"j  c #415B63",
"k  c #445E65",
"l  c #445D66",
"z  c #565F60",
"x  c #47616B",
"c  c #486069",
"v  c #49636E",
"b  c #4A656E",
"n  c #44686B",
"m  c #586062",
"M  c #4E7A6A",
"N  c #4F7A6B",
"B  c #507B6B",
"V  c #507B6C",
"C  c #4C6873",
"Z  c #4D6974",
"A  c #4F6B77",
"S  c #4F6D77",
"D  c #4E6D79",
"F  c #5E7774",
"G  c #537F70",
"H  c #606663",
"J  c #6A716E",
"K  c #6B706F",
"L  c #737674",
"P  c #777D7B",
"I  c #787B7A",
"U  c #538073",
"Y  c #53827A",
"T  c #5B8B7B",
"R  c #5D907E",
"E  c #4C708A",
"W  c #567582",
"Q  c #577583",
"!  c #577785",
"~  c #587785",
"^  c #587786",
"/  c #597886",
"(  c #597887",
")  c #5A7A89",
"_  c #5B7B8A",
"`  c #5B7C8B",
"'  c #5D7E8D",
"]  c #5D7E8E",
"[  c #5C879D",
"{  c #678B83",
"}  c #6B8C8C",
"|  c #7F8486",
" . c #609582",
".. c #619186",
"X. c #669D8A",
"o. c #628394",
"O. c #628395",
"+. c #638597",
"@. c #65889A",
"#. c #66899B",
"$. c #688D9E",
"%. c #68A199",
"&. c #69A19B",
"*. c #6A8FA2",
"=. c #6D94A5",
"-. c #749DB0",
";. c #7CABA2",
":. c #75B1A0",
">. c #76B2A1",
",. c #74B3A3",
"<. c #76B3AB",
"1. c #7EBEAA",
"2. c #7DAAC2",
"3. c #808585",
"4. c #808586",
"5. c #868989",
"6. c #888E8F",
"7. c #8C9092",
"8. c #8D9092",
"9. c #8D9193",
"0. c #8E9193",
"q. c #8E9294",
"w. c #909395",
"e. c #919496",
"r. c #909596",
"t. c #939698",
"y. c #BAA1AE",
"u. c #B1B9BA",
"i. c #C289A3",
"p. c #B0E585",
"a. c #ADE796",
"s. c #87C2A0",
"d. c #84C3A8",
"f. c #8CC4AC",
"g. c #81C2B0",
"h. c #82C4B0",
"j. c #8AC9B7",
"k. c #81C7BF",
"l. c #89C9B8",
"z. c #89CAB8",
"x. c #89CBB8",
"c. c #8ACAB8",
"v. c #8BD3BD",
"b. c #8DD3BF",
"n. c #AEC0BD",
"m. c #A9E8A2",
"M. c #ADE9A5",
"N. c #A7E9AC",
"B. c #A6EAAD",
"V. c #A2ECBD",
"C. c #A2ECBE",
"Z. c #B4EBB4",
"A. c #9F95CD",
"S. c #82AFC4",
"D. c #80AFCC",
"F. c #9FAECB",
"G. c #84B2C9",
"H. c #8AB7CF",
"J. c #9EB4CE",
"K. c #9FBACF",
"L. c #8AB9D2",
"P. c #8DBDD6",
"I. c #8EBFDA",
"U. c #A0BFCA",
"Y. c #87D0C6",
"T. c #8CD1C0",
"R. c #8DD7C1",
"E. c #8EDAC8",
"W. c #97D5C2",
"Q. c #92DEC5",
"!. c #93DFC6",
"~. c #9DDFCF",
"^. c #9EC3D0",
"/. c #9ECBD1",
"(. c #9EDAD2",
"). c #9DDCD2",
"_. c #ACC5C0",
"`. c #ABC8C2",
"'. c #AACAC2",
"]. c #A4DBC9",
"[. c #A3DDCB",
"{. c #96E0C9",
"}. c #92E0CD",
"|. c #9FE6CF",
" X c #9FEDC9",
".X c #9BECCF",
"XX c #9EEDCC",
"oX c #9DE2D2",
"OX c #9CE3D2",
"+X c #9DE4D2",
"@X c #9BEBD1",
"#X c #9CE8D0",
"$X c #9FE8D0",
"%X c #9EEAD1",
"&X c #9DEBD3",
"*X c #9AECD1",
"=X c #9BECD2",
"-X c #9BEDD2",
";X c #9DEED0",
":X c #9CECD2",
">X c #9DECD3",
",X c #9CEDD3",
"<X c #9DEDD3",
"1X c #9CEED3",
"2X c #9FEED4",
"3X c #A0E5CF",
"4X c #A6EECC",
"5X c #A3EFD7",
"6X c #B3F0D4",
"7X c #94C5E0",
"8X c #94C6E0",
"9X c #95C8E2",
"0X c #96C8E2",
/* pixels */
"                                                                ",
"              @ @ @ @ @ @ @ @ @ @ @ @ @ @ @ X                   ",
"            S 9X9X7XI.L.H.H.H.H.H.H.H.H.H.H.H.$                 ",
"          r G.9X7XD.E . . . . . . . . . . . . H.*               ",
"          r S.P.2.[ . 1X@X@X@X@X@X@X@X@X@X@X-X.X. #             ",
"        . k -.=.. R R.g.1.1.1.1.1.1.1.1.1.1.1X1X.X%             ",
"        . @.*.$.. U 1Xf . . . . . . . . . . . ;.{..             ",
"        . @.@.' . V 1X. t.t.t.t.t.t.t.t.t.t.e.. c..             ",
"        . @.@.' . N 1X. t.t.t.. t.t.t.t.. t.9.. c..             ",
"        . @.@.' . N 1X. t.t.t.. 9.e.9.q.. t.9.. c..             ",
"        . @.@.' . B 1X. t.t.t.t.t.t.t.t.t.t.w.. j..             ",
"        . @.@.' . B 1X. t.t.t.4.. t.t.. 9.t.t.. j..             ",
"        . @.@.' . V 1X. t.t.t.t.4.. . 9.t.t.t.. c..             ",
"        . @.@.' . G 1X. | | | | | | | | | | 6.. c..             ",
"        . @.@.' . T 1X{ F . . . . . . . . . . } b..             ",
"        . @.@.' .  .Q.1X1X1X1X1X1X1X1X1X1X1X1X1X1X.             ",
"        . Q @.' .  .Q.,.........,.1X1X1X1X1X<.1X-X.             ",
"      - . . @.' .  .&XW.f.s.d.h.v.1X1X].`.[.T.1X-X.             ",
"      = . _ @.' .  .5X6XZ.a.N.XX1X1X1Xu.i.n.&X1X1X. X           ",
"      . . +.( C .  .2X4XM.p.m. X1X1X1X_.y.`.&X1X1X. .           ",
"      . ` Q j v .  .1X1XV.N.V.1X1X1X1X3X[.|.1X1X1X< Z .         ",
"      . O.b q . . Y }.1X~.U.F.^.oX1X1X1X1X1X1X1X1X< ( .         ",
"      . O.x . ' p . Y.1XoXJ.A.K.+X1X1X1X1X1X1X1X1X< ( ' .       ",
"      . O.x . O.D n ,.1X1X(./.).1X1X1X1X1X1X1XX.N . ^ @..       ",
"      . O.k . . j r . %.E.1X&X1X1X1X1X1X1X1Xk.%.. @ ! @..       ",
"      . O.c , a . . . . . . . . . . . . i i 8 &   X ^ @..       ",
"        . .       K a . 1 0 H P K 0 . 5 >           ; .         ",
"                  5.z . e d         . y 4                       ",
"                    m . e 5         . u 4                       ",
"                    L . e 1           . 4                       ",
"                    I g . Z :         . _ 5                     ",
"                                                                "
};
