/* XPM */
static char *_e8e227f3d39486bc30706edfa3e64a7phlQg7bnv2MzJpol[] = {
/* columns rows colors chars-per-pixel */
"32 32 220 2 ",
"   c None",
".  c #0C1711",
"X  c #0D1913",
"o  c #0E1912",
"O  c #0E1913",
"+  c #101C17",
"@  c #111D18",
"#  c #111E1E",
"$  c #13201E",
"%  c #16251E",
"&  c #142020",
"*  c #152429",
"=  c #212D2C",
"-  c #242F2F",
";  c #243637",
":  c #28393C",
">  c #293C3E",
",  c #313A35",
"<  c #2C463B",
"1  c #2C4042",
"2  c #2F4244",
"3  c #304246",
"4  c #304347",
"5  c #324548",
"6  c #32464A",
"7  c #33474B",
"8  c #314D4D",
"9  c #3C4948",
"0  c #3C4B4A",
"q  c #364B51",
"w  c #374C52",
"e  c #384D53",
"r  c #395055",
"t  c #395256",
"y  c #3B5059",
"u  c #3C525A",
"i  c #3C545A",
"p  c #3E6155",
"a  c #424C49",
"s  c #434C4B",
"d  c #475557",
"f  c #43555D",
"g  c #4E5A5A",
"h  c #405A63",
"j  c #415A63",
"k  c #425B64",
"l  c #445C67",
"z  c #445E66",
"x  c #575F60",
"c  c #585F62",
"v  c #48606A",
"b  c #48606C",
"n  c #4A636F",
"m  c #4B646F",
"M  c #45686C",
"N  c #4E7A6B",
"B  c #4F796D",
"V  c #507A6D",
"C  c #507A6E",
"Z  c #4D6874",
"A  c #4E6975",
"S  c #4F6A78",
"D  c #4F6C7A",
"F  c #506D78",
"G  c #5E7775",
"H  c #537E72",
"J  c #606663",
"K  c #6A716E",
"L  c #6B706F",
"P  c #737674",
"I  c #717778",
"U  c #777D7B",
"Y  c #787B7A",
"T  c #538074",
"R  c #54827C",
"E  c #5B8B7D",
"W  c #4E6F8C",
"Q  c #577584",
"!  c #587485",
"~  c #587686",
"^  c #587687",
"/  c #597687",
"(  c #597787",
")  c #5A7788",
"_  c #5B798B",
"`  c #5C7A8C",
"'  c #5C7B8C",
"]  c #5E7D8E",
"[  c #5E7E90",
"{  c #5D8F80",
"}  c #5D869F",
"|  c #678A85",
" . c #6B8C8D",
".. c #7F8486",
"X. c #609484",
"o. c #619188",
"O. c #638295",
"+. c #638296",
"@. c #648499",
"#. c #66879B",
"$. c #67889C",
"%. c #698C9F",
"&. c #69A190",
"*. c #69A19B",
"=. c #6C8FA4",
"-. c #6E93A6",
";. c #759CB2",
":. c #7CAAA4",
">. c #75B1A3",
",. c #76B2A4",
"<. c #74B2A6",
"1. c #77B2AD",
"2. c #7EBDAC",
"3. c #7FA9C4",
"4. c #808585",
"5. c #808586",
"6. c #838789",
"7. c #868989",
"8. c #898E90",
"9. c #8C9092",
"0. c #8D9093",
"q. c #8E9193",
"w. c #8E9194",
"e. c #909396",
"r. c #919496",
"t. c #919497",
"y. c #939699",
"u. c #BAA1AD",
"i. c #AEBFBE",
"p. c #B1B9BA",
"a. c #C389A1",
"s. c #AEE687",
"d. c #ABE798",
"f. c #86C2A2",
"g. c #84C3AA",
"h. c #8CC4AF",
"j. c #81C1B3",
"k. c #82C4B3",
"l. c #8AC8B9",
"z. c #89C8BA",
"x. c #89C9BB",
"c. c #8AC9BA",
"v. c #8ACABB",
"b. c #A8E8A4",
"n. c #ABE9A7",
"m. c #A5E9AF",
"M. c #A5EAAF",
"N. c #B2EBB6",
"B. c #A194CC",
"V. c #83AEC6",
"C. c #82AECE",
"Z. c #85B1CB",
"A. c #8BB6D1",
"S. c #8CB7D4",
"D. c #8EBBD8",
"F. c #9FB3D0",
"G. c #90BEDC",
"H. c #A0ADCC",
"J. c #A0BECB",
"K. c #A0B9D1",
"L. c #82C6C2",
"P. c #88CFC9",
"I. c #8BD3C0",
"U. c #8DD1C3",
"Y. c #8DD2C2",
"T. c #8DD6C4",
"R. c #8ED9CB",
"E. c #98D4C4",
"W. c #93DDC9",
"Q. c #92DEC8",
"!. c #96DFCC",
"~. c #9EC2D2",
"^. c #9ECBD3",
"/. c #92DFD0",
"(. c #9EDFD1",
"). c #9ED9D4",
"_. c #9DDCD5",
"`. c #ACC5C1",
"'. c #ABC8C3",
"]. c #AACAC3",
"[. c #A4DACC",
"{. c #A3DCCD",
"}. c #96E4CF",
"|. c #9FECCC",
" X c #9EECCF",
".X c #9DE7D2",
"XX c #9DE1D5",
"oX c #9DE2D5",
"OX c #9DE3D5",
"+X c #9FE8D3",
"@X c #9EE9D3",
"#X c #9DEED3",
"$X c #9BEBD4",
"%X c #9CEBD5",
"&X c #9DEBD6",
"*X c #9BECD4",
"=X c #9BEED5",
"-X c #9BEED6",
";X c #9DEDD4",
":X c #9CEDD5",
">X c #9CEFD5",
",X c #9DEDD6",
"<X c #9DECD7",
"1X c #9CEDD7",
"2X c #9CEED6",
"3X c #9DEED6",
"4X c #9DEFD6",
"5X c #9CEED7",
"6X c #9EEED7",
"7X c #A1EBC1",
"8X c #A1ECC0",
"9X c #A5EDCF",
"0X c #A0E5D2",
"qX c #A0E6D2",
"wX c #A3EEDA",
"eX c #B3EFD7",
"rX c #95C4E2",
"tX c #95C5E3",
"yX c #97C7E4",
"uX c #97C7E5",
/* pixels */
"                                                                ",
"              O @ @ @ @ @ @ @ @ @ @ @ @ @ @ @                   ",
"            $ i A.A.A.A.A.A.A.A.A.A.S.G.tXuXuXF                 ",
"          * A.. . . . . . . . . . . . W C.tXuXZ.t               ",
"        # . 3X*X$X$X$X$X$X$X$X$X$X$X3X. } 3.D.V.t               ",
"        % 3X3X3X2.2.2.2.2.2.2.2.2.2.j.T.{ . -.;.l .             ",
"        . !.:.. . . . . . . . . . . f 3XT . %.=.$..             ",
"        . v.. r.y.y.y.y.y.y.y.y.y.y.. 3XC . ] #.#..             ",
"        . v.. q.w.. y.y.y.y.. y.I y.. 3XB . ] #.#..             ",
"        . v.. q.. y.. w.r.. y.. y.y.. 3XB . ] #.#..             ",
"        . v.. e.w.y.y.y.y.y.y.w.6.y.. 3XC . ] #.#..             ",
"        . v.. y.y.w.. y.y.. 5.y.y.y.. 3XC . ] #.#..             ",
"        . v.. y.y.y.q.. . 5.y.y.y.y.. 3XC . ] #.#..             ",
"        . v.. 8...................... 3XH . ] #.#..             ",
"        . Y. .. . . . . . . . . . G | 3XE . ] #.#..             ",
"        . 3X3X3X3X3X*X3X3X3X3X3X3X*X3XW.X.. ] #.#..             ",
"        . }.>.o.o.o.o.,.3X3X3X3X3X1.3XW.X.. ] #.~ .             ",
"        . %XE.h.f.g.k.I.3X3X[.'.{.Y.3X.XX.. ] #.. . -           ",
"      O . 3XeXN.d.m. X3X3X3Xp.a.i.@X3XwXX.. ] #.' . =           ",
"      . . 3X9Xn.s.n. X3X3X3X`.u.'.@X3X3XX.. Z ) #.. .           ",
"    . S < 3X3X7Xm.8X#X3X3X3X0X{.0X3X3X3XX.. n k Q ' .           ",
"    . ~ < 3X3X(.J.H.~.XX3X3X3X3X3X3X3X/.R . . q m O..           ",
"  . [ ~ < 3X3XXXF.B.K.XX3X3X3X3X3X3X3XP.. h ] . n O..           ",
"  . #.~ . N &.%X).^._.%X3X3X3X3X3X3X3X,.M D O.. n O..           ",
"  . #.~ + . *.L.3X3X3X3X3X3X3X3X3XR.*.. t h . . l O..           ",
"  . #.~ O   & 8 p p . . . . . . . . . . . . s , v O..           ",
"    . ;           > 7 . 9 K U J 9 2 . s K       . .             ",
"                  3 y .         d w . x 7.                      ",
"                  3 u .         7 e . c                         ",
"                  3 .           1 e . P                         ",
"                7 _ .         : Z . g Y                         ",
"                                                                "
};
