/* XPM */
static char *cbc136a1085c4545fdcada7f91f4d29dALA6LndBgevnSM7o[] = {
/* columns rows colors chars-per-pixel */
"32 32 210 2 ",
"   c None",
".  c #0C1711",
"X  c #0D1913",
"o  c #0E1912",
"O  c #0E1913",
"+  c #101C17",
"@  c #111D18",
"#  c #111E1E",
"$  c #13201E",
"%  c #16251E",
"&  c #142020",
"*  c #152429",
"=  c #212D2C",
"-  c #242F2F",
";  c #243637",
":  c #28393C",
">  c #293C3E",
",  c #313A35",
"<  c #2C463B",
"1  c #2C4042",
"2  c #2F4244",
"3  c #304246",
"4  c #304347",
"5  c #324548",
"6  c #32464A",
"7  c #33474B",
"8  c #314D4D",
"9  c #3C4948",
"0  c #3C4B4A",
"q  c #364B51",
"w  c #374C52",
"e  c #384D53",
"r  c #395055",
"t  c #395256",
"y  c #3B5059",
"u  c #3C525A",
"i  c #3E6155",
"p  c #424C49",
"a  c #434C4B",
"s  c #475557",
"d  c #43555D",
"f  c #4E5A5A",
"g  c #405A63",
"h  c #415A63",
"j  c #425B64",
"k  c #445C67",
"l  c #445E66",
"z  c #575F60",
"x  c #585F62",
"c  c #48606A",
"v  c #48606C",
"b  c #4A636F",
"n  c #4B646F",
"m  c #45686C",
"M  c #4E7A6B",
"N  c #4F796D",
"B  c #507A6D",
"V  c #507A6E",
"C  c #4D6874",
"Z  c #4E6975",
"A  c #4F6A78",
"S  c #4F6C7A",
"D  c #506D78",
"F  c #5E7775",
"G  c #537E72",
"H  c #606663",
"J  c #6A716E",
"K  c #6B706F",
"L  c #737674",
"P  c #777D7B",
"I  c #787B7A",
"U  c #538074",
"Y  c #54827C",
"T  c #5B8B7D",
"R  c #4E6F8C",
"E  c #577584",
"W  c #587485",
"Q  c #587686",
"!  c #587687",
"~  c #597687",
"^  c #597787",
"/  c #5A7788",
"(  c #5B798B",
")  c #5C7A8C",
"_  c #5C7B8C",
"`  c #5E7D8E",
"'  c #5E7E90",
"]  c #5D8F80",
"[  c #5D869F",
"{  c #678A85",
"}  c #6B8C8D",
"|  c #7F8486",
" . c #609484",
".. c #619188",
"X. c #669D8C",
"o. c #638295",
"O. c #638296",
"+. c #648499",
"@. c #66879B",
"#. c #67889C",
"$. c #698C9F",
"%. c #69A19B",
"&. c #6C8FA4",
"*. c #6E93A6",
"=. c #759CB2",
"-. c #7CAAA4",
";. c #75B1A3",
":. c #76B2A4",
">. c #74B2A6",
",. c #77B2AD",
"<. c #7EBDAC",
"1. c #7FA9C4",
"2. c #808585",
"3. c #808586",
"4. c #868989",
"5. c #898E90",
"6. c #8C9092",
"7. c #8D9093",
"8. c #8E9193",
"9. c #8E9194",
"0. c #909396",
"q. c #919496",
"w. c #919497",
"e. c #939699",
"r. c #BAA1AD",
"t. c #AEBFBE",
"y. c #B1B9BA",
"u. c #C389A1",
"i. c #AEE687",
"p. c #ABE798",
"a. c #86C2A2",
"s. c #84C3AA",
"d. c #8CC4AF",
"f. c #81C1B3",
"g. c #82C4B3",
"h. c #8AC8B9",
"j. c #89C8BA",
"k. c #89C9BB",
"l. c #8AC9BA",
"z. c #8ACABB",
"x. c #A8E8A4",
"c. c #ABE9A7",
"v. c #A5E9AF",
"b. c #A5EAAF",
"n. c #B2EBB6",
"m. c #A194CC",
"M. c #83AEC6",
"N. c #82AECE",
"B. c #85B1CB",
"V. c #8BB6D1",
"C. c #8CB7D4",
"Z. c #8EBBD8",
"A. c #9FB3D0",
"S. c #90BEDC",
"D. c #A0ADCC",
"F. c #A0BECB",
"G. c #A0B9D1",
"H. c #82C6C2",
"J. c #88CFC9",
"K. c #8BD3C0",
"L. c #8DD1C3",
"P. c #8DD2C2",
"I. c #8DD6C4",
"U. c #8ED9CB",
"Y. c #98D4C4",
"T. c #92DEC8",
"R. c #93DFC9",
"E. c #96DFCC",
"W. c #9EC2D2",
"Q. c #9ECBD3",
"!. c #92DFD0",
"~. c #9EDFD1",
"^. c #9ED9D4",
"/. c #9DDCD5",
"(. c #ACC5C1",
"). c #ABC8C3",
"_. c #AACAC3",
"`. c #A4DACC",
"'. c #A3DCCD",
"]. c #9FECCC",
"[. c #9EECCF",
"{. c #9FE6D2",
"}. c #9DE1D5",
"|. c #9DE2D5",
" X c #9DE3D5",
".X c #9CE8D2",
"XX c #9FE8D3",
"oX c #9DEED3",
"OX c #9BEBD4",
"+X c #9BEBD5",
"@X c #9EEAD4",
"#X c #9DEAD6",
"$X c #9CEBD6",
"%X c #9DEBD6",
"&X c #9BECD4",
"*X c #9CEDD5",
"=X c #9CECD6",
"-X c #9DEDD6",
";X c #9DEED6",
":X c #9FEED7",
">X c #A1EBC1",
",X c #A1ECC0",
"<X c #A6EDCF",
"1X c #A0E5D2",
"2X c #A3EFDA",
"3X c #B3EFD7",
"4X c #95C4E2",
"5X c #95C5E3",
"6X c #97C7E4",
"7X c #97C7E5",
/* pixels */
"                                                                ",
"              @ @ @ @ @ @ @ @ @ @ @ @ @ @ @ X                   ",
"            D 6X6X4XS.C.V.V.V.V.V.V.V.V.V.V.V.$                 ",
"          r B.6X4XN.R . . . . . . . . . . . . V.*               ",
"          r M.Z.1.[ . ;XOXOXOXOXOXOXOXOXOXOX&XOX. #             ",
"        . l =.*.. ] I.f.<.<.<.<.<.<.<.<.<.<.;X;XOX%             ",
"        . #.&.$.. U ;Xd . . . . . . . . . . . -.E..             ",
"        . @.@.` . V ;X. e.e.e.e.e.e.e.e.e.e.w.. l..             ",
"        . @.@.` . N ;X. e.e.e.. e.e.e.e.. e.8.. l..             ",
"        . @.@.` . N ;X. e.e.. e.. w.9.. e.. 8.. l..             ",
"        . @.@.` . V ;X. e.e.e.e.e.e.e.e.e.e.0.. l..             ",
"        . @.@.` . V ;X. e.e.e.3.. e.e.. 9.e.e.. l..             ",
"        . @.@.` . V ;X. e.e.e.e.3.. . 8.e.e.e.. l..             ",
"        . @.@.` . G ;X. | | | | | | | | | | 5.. l..             ",
"        . @.@.` . T ;X{ F . . . . . . . . . . } L..             ",
"        . @.@.` .  .T.;X;X;X;X;X;X;X;X;X;X;X;X;X;X.             ",
"        . W @.` .  .T.;.........>.;X;X;X;X;X,.;XOX.             ",
"      - . . @.` .  ..XY.d.a.s.g.K.;X;X`.).'.L.;X;X.             ",
"      = . ) @.` .  .2X3Xn.p.v.].;X;X;Xy.u.t..X;X;X. X           ",
"      . . @./ C .  .;X<Xc.i.c.].;X;X;X(.r.).%X;X;X. .           ",
"      . ) E j b .  .;XoX>Xv.,XoX;X;X;X1X'.{.;X;X;X< A .         ",
"      . O.n q . . Y !.;X~.F.D.W.}.;X;X;X;X;X;X;X;X< W .         ",
"      . O.b . ` h . J.;X}.A.m.G.}.;X;X;X;X;X;X;X;X< W ' .       ",
"      . O.b . O.S m >.;X%X^.Q./.%X;X;X;X;X;X;XX.M . W @..       ",
"      . O.l . . h r . %.U.%X%X;X;X;X;X;X;X;XH.%.. + W @..       ",
"      . O.c , p . . . . . . . . . . . . i i 8 &   X W @..       ",
"        . .       K p . 2 0 H P K 0 . 5 >           ; .         ",
"                  4.z . w s         . y 4                       ",
"                    x . e 5         . u 4                       ",
"                    L . e 1           . 4                       ",
"                    I f . C :         . ( 5                     ",
"                                                                "
};
