/* XPM */
static char *_cff2063484545a8ff68d410c2b852b6PQFwVJnshLQ1LyBC[] = {
/* columns rows colors chars-per-pixel */
"32 32 192 2 ",
"   c None",
".  c #051000",
"X  c #1A0F15",
"o  c #1D121C",
"O  c #1A1216",
"+  c #300D0F",
"@  c #2E1F08",
"#  c #2E0C19",
"$  c #3E091B",
"%  c #26161D",
"&  c #331A1A",
"*  c #212000",
"=  c #17162F",
"-  c #0E0F3A",
";  c #0F1238",
":  c #191632",
">  c #2D1B2D",
",  c #271925",
"<  c #3A1A2F",
"1  c #32192A",
"2  c #2D1D34",
"3  c #2B1F39",
"4  c #331C34",
"5  c #3C1D3A",
"6  c #371F3E",
"7  c #1B2335",
"8  c #162A3A",
"9  c #1A2B3D",
"0  c #182436",
"q  c #1B313D",
"w  c #1B383B",
"e  c #16343D",
"r  c #143329",
"t  c #24212E",
"y  c #2B232B",
"u  c #292927",
"i  c #39252F",
"p  c #232334",
"a  c #23233C",
"s  c #2C213A",
"d  c #322432",
"f  c #3C203E",
"g  c #362C37",
"h  c #2A313E",
"j  c #383336",
"k  c #4C081D",
"l  c #5E071B",
"z  c #520F1C",
"x  c #49121E",
"c  c #54121F",
"v  c #650C1E",
"b  c #67081D",
"n  c #7A041F",
"m  c #5E0321",
"M  c #520623",
"N  c #4B1B22",
"B  c #46172A",
"V  c #5A1828",
"C  c #451936",
"Z  c #551937",
"A  c #480622",
"S  c #640221",
"D  c #6A0023",
"F  c #640E25",
"G  c #6D0C22",
"H  c #620D2A",
"J  c #6D0C2A",
"K  c #750122",
"L  c #740B24",
"P  c #7A0727",
"I  c #661127",
"U  c #68102D",
"Y  c #651233",
"T  c #492026",
"R  c #42332D",
"E  c #563230",
"W  c #652733",
"Q  c #024C31",
"!  c #00593C",
"~  c #21483F",
"^  c #5F4E1E",
"/  c #454533",
"(  c #3E1944",
")  c #0F2D43",
"_  c #1D2B42",
"`  c #142F48",
"'  c #0F3C46",
"]  c #183142",
"[  c #163944",
"{  c #1A3842",
"}  c #16344A",
"|  c #19344B",
" . c #062759",
".. c #112C5D",
"X. c #192855",
"o. c #1F3259",
"O. c #0D3A57",
"+. c #262649",
"@. c #3D2344",
"#. c #332D41",
"$. c #3A2848",
"%. c #2E3B45",
"&. c #2F3243",
"*. c #313446",
"=. c #2B2352",
"-. c #33395F",
";. c #0D2861",
":. c #283A63",
">. c #441947",
",. c #412447",
"<. c #4A2244",
"1. c #422B45",
"2. c #483A57",
"3. c #673744",
"4. c #17424D",
"5. c #174947",
"6. c #17524D",
"7. c #114F4F",
"8. c #264244",
"9. c #3B4043",
"0. c #2E5047",
"q. c #37594B",
"w. c #3B545D",
"e. c #00624B",
"r. c #006751",
"t. c #146256",
"y. c #266352",
"u. c #3A6859",
"i. c #2B6161",
"p. c #327976",
"a. c #494A44",
"s. c #444946",
"d. c #414957",
"f. c #585D56",
"g. c #714A50",
"h. c #645753",
"j. c #426047",
"k. c #416359",
"l. c #656852",
"z. c #4D5367",
"x. c #41586B",
"c. c #586565",
"v. c #4A7166",
"b. c #427271",
"n. c #577369",
"m. c #6E6161",
"M. c #637061",
"N. c #8E031E",
"B. c #82041D",
"V. c #94021E",
"C. c #9B001F",
"Z. c #A4001E",
"A. c #850322",
"S. c #8B0423",
"D. c #920220",
"F. c #9C0E2A",
"G. c #9A132E",
"H. c #99344C",
"J. c #C13441",
"K. c #96605B",
"L. c #886771",
"P. c #AF6968",
"I. c #BB6B69",
"U. c #D26C6B",
"Y. c #89817C",
"T. c #DE867D",
"R. c #3A6D8B",
"E. c #5C7084",
"W. c #4A6C87",
"Q. c #6A7D8E",
"!. c #7C7D8D",
"~. c #777B95",
"^. c #6F8B97",
"/. c #648488",
"(. c #4D87A2",
"). c #5F9EA4",
"_. c #5399A4",
"`. c #6FBDAA",
"'. c #97929D",
"]. c #8D8C98",
"[. c #B7858B",
"{. c #B7ABA1",
"}. c #C69584",
"|. c #FF9980",
" X c #D3ADA4",
".X c #82B8C2",
"XX c #94D5D8",
"oX c #ADECD3",
"OX c #8CCAE5",
"+X c #9AE8E8",
"@X c #FFCDC9",
"#X c #F6C4C0",
/* pixels */
"                                                                ",
"                                                X X X           ",
"                    X X X X X       ).X X     X X i X         X ",
"          OX          X Z.Z.X   X X X u.p.X X   % 4 = X   X X   ",
"          )./.          X Z.;.X Z. .X.,.2.z.w.8.w _ : o   X     ",
"    X X X -   l.          X @ V.C.Y <.2.z.x.i.t.6.d.&.X   X     ",
"X X - #.X X X         X X D J G.G.D  .~.~.! r.r.b.c.s.d y X     ",
"X X X f.m.c.X         X D D ^.`.].R.:.T.|.}.P.k.n.M.a.a.s.X     ",
"    X h.g.h.K.X   X X Z.D Z.'.+X+X(.:.U.@X@X X_.v.j.u X X       ",
"      X D / 3.X X l N.V.C.H.'.XX.XW.-.[.#X@X{.e.q.X X           ",
"      X D D D D l B.Z.D.C.F.!.Q.E.x.o.L.P.I.J.y.0.X             ",
"        X D S S D S.C.S.A.H C 2 a +.9 %.q Q q 0.~ X             ",
"        X $ m S D.C.Z.Z.L B < 7 0 9 8 9 q w h g i X X           ",
"        # k m D D Z.Z.D.L F 4 7 0 8 8 8 { { q q d > 1 X         ",
"      X k S X X X D A.C.P V < 7 7 0 8 { [ [ e q p > , , X       ",
"      X A - X   X X D A.A.P B p 7 9 ] | O.5.X   X X % , , X     ",
"    X b M X -     X D S.C.K H 2 7 9 } ;.;.;.X       * r t t X   ",
"    X N.n X   oX    X Z.Z.Z.Z 3 9 ] ;.;.X X           X y d ,.X ",
"    B.N.Z.X         X Z.D Z.( s _ | ^ X X             X ,.f ,.X ",
"  X Z.S.,.X         X Z.Z.S.>.+.` 4.X X           X X   ;.6 Z X ",
"  X V.P ,.X X X X   X D K S.X.....4.X               X X . 5 +.X ",
"  X I Z Z ,.,.,.X X X X D J X.;...;.X X X X           X b H X.X ",
"  X d 1.<.,.X X X X   X Z.P =.;.o.| ' 7.6.X X   X X F L G J +.X ",
"  X h %.,.X X X         X Y ,.=.+.` ) ) ` - X     X B N I Z a X ",
"  X #.*.,.X   X X       X C @.$.,.5.;.- - ; X X     X & V E O   ",
"  X @.$.,.X   ,.X X     X f @.,.f.X X   X ; - g j   X T V W X   ",
"  X - ,.- X X         X > 6 X X X   X X a = X j 9.& X x z N     ",
"    X ,.X ,.,.X X X   X > 4 X       X Y.g X   R E N c v + X     ",
"    X ,.,.- -         X 2 X         X X.X   X % N c G A.S.X     ",
"      X - ,.,.X X     X 4 X           X     X X k v X X X       ",
"        X X X X       X 4 X                   X X X             ",
"                      X X                                       "
};
