/* XPM */
static char *_0ec63b6033c40e3a225e182d7362ee5z3iSpuumhQ1viMnX[] = {
/* columns rows colors chars-per-pixel */
"32 32 201 2 ",
"   c None",
".  c #0C1710",
"X  c #0F1B16",
"o  c #1C1B1A",
"O  c #111B18",
"+  c #241A1D",
"@  c #2E1818",
"#  c #3B1319",
"$  c #361417",
"%  c #25221E",
"&  c #0A002B",
"*  c #1E1B20",
"=  c #0E0F3A",
"-  c #17193B",
";  c #3A1B2C",
":  c #2C0731",
">  c #380033",
",  c #271833",
"<  c #3A1835",
"1  c #361538",
"2  c #1C282B",
"3  c #0E2435",
"4  c #0B2539",
"5  c #132536",
"6  c #1D233C",
"7  c #182839",
"8  c #1B303D",
"9  c #24222E",
"0  c #232331",
"q  c #2B293B",
"w  c #322A37",
"e  c #323030",
"r  c #3A2028",
"t  c #6D0D1E",
"y  c #76081D",
"u  c #50002B",
"i  c #49182D",
"p  c #5D1429",
"a  c #560E32",
"s  c #441C37",
"d  c #5B1735",
"f  c #6C0524",
"g  c #770C26",
"h  c #6C1B29",
"j  c #7A192D",
"k  c #77162A",
"l  c #621738",
"z  c #761B38",
"x  c #650D32",
"c  c #4D222F",
"v  c #432636",
"b  c #592234",
"n  c #512136",
"m  c #463339",
"M  c #662335",
"N  c #6C2635",
"B  c #6B283C",
"V  c #792539",
"C  c #77242C",
"Z  c #181A43",
"A  c #371E4A",
"S  c #1A2947",
"D  c #1E394B",
"F  c #012659",
"G  c #032356",
"H  c #112954",
"J  c #192952",
"K  c #0D3652",
"L  c #163653",
"P  c #1A3C55",
"I  c #19315B",
"U  c #183656",
"Y  c #24244C",
"T  c #292948",
"R  c #372445",
"E  c #243448",
"W  c #3A324D",
"Q  c #393B48",
"!  c #292A57",
"~  c #342553",
"^  c #3C2F5D",
"/  c #3A2651",
"(  c #243454",
")  c #233A55",
"_  c #2B3D57",
"`  c #2C365C",
"'  c #263A5B",
"]  c #313359",
"[  c #39375A",
"{  c #032C60",
"}  c #093767",
"|  c #2C3660",
" . c #323474",
".. c #560041",
"X. c #441D40",
"o. c #561A47",
"O. c #63194B",
"+. c #412447",
"@. c #462749",
"#. c #443842",
"$. c #5D3944",
"%. c #46235C",
"&. c #442851",
"*. c #6D2F4D",
"=. c #603B4E",
"-. c #733E51",
";. c #6B3254",
":. c #432660",
">. c #4A2C64",
",. c #5E3F74",
"<. c #563B63",
"1. c #1F464E",
"2. c #1C4351",
"3. c #224F47",
"4. c #2B4E4D",
"5. c #344441",
"6. c #27514E",
"7. c #224352",
"8. c #294D55",
"9. c #224059",
"0. c #29455B",
"q. c #2C4A5B",
"w. c #254C5A",
"e. c #324B5F",
"r. c #2C5255",
"t. c #35545D",
"y. c #1E4569",
"u. c #374B67",
"i. c #3C5365",
"p. c #3B4D78",
"a. c #2A5577",
"s. c #2A516A",
"d. c #4A455A",
"f. c #484654",
"g. c #564453",
"h. c #46515E",
"j. c #585359",
"k. c #6A4859",
"l. c #764B5A",
"z. c #775558",
"x. c #464862",
"c. c #524C6D",
"v. c #474070",
"b. c #524176",
"n. c #5B596C",
"m. c #79596B",
"M. c #5D6264",
"N. c #40637E",
"B. c #7E6369",
"V. c #666175",
"C. c #88051D",
"Z. c #A4001E",
"A. c #820123",
"S. c #850826",
"D. c #930121",
"F. c #950C29",
"G. c #821833",
"H. c #860C33",
"J. c #A1112A",
"K. c #892538",
"L. c #8A343D",
"P. c #C1132A",
"I. c #993E4D",
"U. c #8D4853",
"Y. c #8D5163",
"T. c #815770",
"R. c #915671",
"E. c #834866",
"W. c #AE5265",
"Q. c #9F7074",
"!. c #996969",
"~. c #B26B76",
"^. c #B47073",
"/. c #CF645E",
"(. c #C57676",
"). c #A2807E",
"_. c #356289",
"`. c #4C6385",
"'. c #636087",
"]. c #927888",
"[. c #AF7A81",
"{. c #4E93AA",
"}. c #70C6D9",
"|. c #8A8392",
" X c #B3B1AD",
".X c #D8899F",
"XX c #EF9392",
"oX c #F79C9D",
"OX c #E5ABA9",
"+X c #FFB0B4",
"@X c #E6B6AF",
"#X c #84B1C4",
"$X c #A3BDC5",
"%X c #8FCDD3",
"&X c #9BC2C9",
"*X c #A1D6DB",
"=X c #91DAE1",
"-X c #A4EBEE",
";X c #FFC0DB",
":X c #F8C6C0",
">X c #FFE2CA",
/* pixels */
"                                                                ",
"          . . .                                                 ",
".         . M.. .     . . ^.      . . O X .                     ",
"  . .   . T T .   . . U.l.. . .   . 2 2 .                       ",
"    .   . R @.Z.. Z.L.K.G F ! [ . i 0 .             Q.          ",
"    .   . v *.Z.Z.  J.Z.F I [ d.d.d.e           V.g.  . + ;     ",
"    . . . #.-.I.Z.Z.A.Z.d F k.^ |.m.-.. .         o % o v v . . ",
"    . Z.b $.k.U.l. X#X}._.F Y.oX.XXX~.H..         m /.$.m . . . ",
"      # p . =.U.^.&X-X=X{.` ^.OX:X+XR.;.'.. .   . k.l.k.j..     ",
"          +.. V F.$X*X%Xa.F [.@X>XOXE.>.v.n.. . . g.z.B..       ",
"            . S.D.T.].7.w.4 B.W.(.(.~.V.L } c.l &.k.!.. .       ",
"            . Z.S.p l 8 3 8 E Q f.x.h.8.P F 2.7.] <.)..         ",
"          . . Z.D.Z.; 5 5 3 3 7 S 9.q.3.3.6.w.y.F :.. .         ",
"        . $ Z.A.u f g 0 3 5 7 S ( _ i.t.6.r.s._.} :.>..         ",
"      . Z.C.D.u . # y i , 6 6 D _ q.t.r.t.e.u.. . . :.F .       ",
"    . F.Z.. . .   . Z.l R 6 S S J P q.0.0._ . .   . ^ F .       ",
"  . P.f A.-       . x %.~ Y Y ~ U 2.3.7.0.y..     >.. K 5..     ",
". C.Z.Z..           . . :.%.Y J U 8.3.7.' .     ;X  . 3.4..     ",
". g Z.A..             . . p.Y ! I x.1.' ( .         . 3.8..     ",
". x a a   . .           . . o.~ ) q.) '  ..         . 4.N.N..   ",
". +.B & . .               . O./ ( 7.) | b..   . . . . Q ,.N..   ",
". R ] } .           . . . + A ~ H D ) ' . . . . C h h M o....   ",
". +.` I } = . .   . . c s s A Y H D ( . .   . . . . t j z ...   ",
". +.R ( J +..     . < s 1 : : R H L 9..         . . $ j G.g .   ",
"  X w T S .     . . < < X.< R / ) L u..       . .   @ j G.z .   ",
"  . i T +..   z.e > 1 9   * . n.d.Z K .     . . y   . K.V b .   ",
"    . T ( . . #.j.. , q 2 .   . . . K .           . . N N v .   ",
"    . T W W . a.i.  . Z f..       . { K .   . . . k d M B .     ",
"    . x.W d.+.. . .   . [ .         . P .         p n b z .     ",
"      . . . . +.. .     .           . p..     . . ; c r .       ",
"            . . .                   . `..       . o . +         ",
"                                      . .                       "
};
