/* XPM */
static char *_b19e5b2a2fe44d9d39fd5d7a99c3c1fhaq5fg0KjpdxSPOZ[] = {
/* columns rows colors chars-per-pixel */
"32 32 47 1 ",
"  c #090302",
". c #0B0504",
"X c #0E0705",
"o c #0F0806",
"O c #110A06",
"+ c #120B09",
"@ c #130C08",
"# c #170E09",
"$ c #170F0C",
"% c #180F0A",
"& c #18100B",
"* c #1C120A",
"= c #1E140B",
"- c #1B110D",
"; c #1C130C",
": c #1E140C",
"> c #21160E",
", c #22180E",
"< c #24180F",
"1 c #281B0F",
"2 c #201610",
"3 c #231910",
"4 c #271B10",
"5 c #271D13",
"6 c #281B10",
"7 c #2B1E11",
"8 c #2C1F11",
"9 c #2A2013",
"0 c #2D2113",
"q c #2B2114",
"w c #2F2214",
"e c #322313",
"r c #322413",
"t c #312314",
"y c #332515",
"u c #342616",
"i c #382717",
"p c #372817",
"a c #392817",
"s c #372718",
"d c #382719",
"f c #372818",
"g c #3B2A19",
"h c #3C2B18",
"j c #3B2C18",
"k c #3E2D1A",
"l c #402F1B",
/* pixels */
"#i7tklh0gkkg847ylt0u777>7774->+X",
"#je888008876,><88<874748476743+X",
"X7u074<<474<44<<<>46<<14766777#X",
",>&O,4>,3@:%#%;,*>44;;#O#;;4>45,",
"076&770uy*#467870e7;>wt>>7700088",
"74>@4-180e<0t887887<><t0080u084>",
"88::9<8twty000888874,4tru0000807",
">:*%&->44=*>>,>>>>>>&:5,>>>>,>4,",
"64>:O-<61;#7fy0776661<467077%407",
"884>:4888>4h4*>74<78808888074it8",
"ytgu08888;#u7y780788tpu0uu074up0",
"776777777;48wy7777771177777<8ay7",
"3443344>>>3>**>>>>::>&*34>>>##-4",
"00tuutp8y08888u00888088008804+$0",
"7:><<4,108480t080877;7,1><00u,+#",
"k0py7747u8680y880878<7<1788uy#%y",
"74447w44444<4<<<>>>>>>,44447>o#9",
",,,,494qw:o4d7&#O*7t<,544#o#444,",
"80uate8tp> 6u7>477tu0y8<4O+47eg0",
"76uu87880&XO*&,80y80774-$+X-,47>",
"87878880r&O70uu888888888<OO47777",
">>>>;>43>#O::34>>>&:>>>>:O#*>>>>",
"70,<&487w>>:>>00y088708,<3>*uw77",
"*<<<#40tu78000<<0061800#;40:188>",
"70e,.,uit78iu88e0077777:,4s;6t77",
"4***#>55,:#34:35>>>3,,,>&&3244*:",
"u0yuu8e077&>;#u0uttttuiy78>-tt0u",
"<0878<1787>,-+:;><y7707888;@7>&,",
">7488<>>8877-OO->tp4>78888:;h07#",
"<<4444<<4444>+@474:--->444:+7yt,",
"X>7777,>>>>4t447,455>,4>>37,4,-#",
"#gy000888880p0hu8000880888080y:X"
};
